<svg width="47" height="49" viewBox="0 0 47 49" fill="none" xmlns="http://www.w3.org/2000/svg">
<ellipse cx="23.5" cy="24.5" rx="23.5" ry="24.5" fill="#6A4029"/>
<path d="M28.6168 15.8356C28.8552 15.5707 29.1383 15.3605 29.4498 15.2172C29.7613 15.0738 30.0952 15 30.4324 15C30.7696 15 31.1035 15.0738 31.415 15.2172C31.7265 15.3605 32.0095 15.5707 32.248 15.8356C32.4864 16.1005 32.6755 16.415 32.8046 16.7611C32.9336 17.1073 33 17.4783 33 17.8529C33 18.2275 32.9336 18.5985 32.8046 18.9447C32.6755 19.2908 32.4864 19.6053 32.248 19.8702L19.9928 33.487L15 35L16.3617 29.4524L28.6168 15.8356Z" stroke="white" stroke-width="2" stroke-linecap="round" stroke-linejoin="round"/>
</svg>
