<svg width="70" height="70" viewBox="0 0 70 70" fill="none" xmlns="http://www.w3.org/2000/svg">
<circle cx="35" cy="35" r="35" fill="#FFBA33"/>
<path d="M37.8148 46L33.4348 38.05H32.2048V46H27.0748V24.94H35.6848C37.3448 24.94 38.7548 25.23 39.9148 25.81C41.0948 26.39 41.9748 27.19 42.5548 28.21C43.1348 29.21 43.4248 30.33 43.4248 31.57C43.4248 32.97 43.0248 34.22 42.2248 35.32C41.4448 36.42 40.2848 37.2 38.7448 37.66L43.6048 46H37.8148ZM32.2048 34.42H35.3848C36.3248 34.42 37.0248 34.19 37.4848 33.73C37.9648 33.27 38.2048 32.62 38.2048 31.78C38.2048 30.98 37.9648 30.35 37.4848 29.89C37.0248 29.43 36.3248 29.2 35.3848 29.2H32.2048V34.42Z" fill="black"/>
</svg>
